<svg xmlns="http://www.w3.org/2000/svg" width="512" height="512" viewBox="0 0 256 256">
  <defs>
    <radialGradient id="background-plate">
      <stop offset="75%" stop-color="#222" />
      <stop offset="100%" stop-color="#111" />
    </radialGradient>
  </defs>
  <g id="background">
    <rect width="256" height="256" rx="48" fill="url(#background-plate)" stroke-width="0.5" stroke="#000" />
  </g>
  <g id="swallow">
    <path id="body"        fill="#ececec" stroke-width="0.5" stroke="#000" d="M170.313 48.313c3.14 9.5 2.312 16.322.937 26.312-.299 2.294-.83 4.553-1.125 6.847-.47 3.659-2.136 9.175-1.025 11.018 14.17 23.504 47.552 53.284 74.278 70.012 3.111 1.778 12.363 1.779 12.363 1.779l.013 91.425-190.766.04s-7.316-6.663-10.452-10.468c-4.817-5.844-8.935-12.266-12.719-18.826-3.978-6.895-8.017-13.896-10.439-21.48-2.28-7.142-3.146-14.708-3.712-22.185-.605-7.992-.244-16.05.354-24.042.556-7.441 1.64-14.848 3.005-22.185.98-5.27 2.276-10.48 3.712-15.645 1.218-4.38 2.404-8.796 4.154-12.993 2.085-4.999 5.369-11.356 7.513-14.407s4.487-6.72 6.842-10.633c11.52-19.145 107.662-86.287 117.067-34.57Z"/>
    <path id="head"        fill="#3c668a" stroke-width="0.5" stroke="#000" d="M57.817 66.63C60.85 32.3 76.58 16.953 83.439 12.02c29.56-21.26 63.283-3.893 63.534-3.761 9.508 4.994 17.362 11.96 22.08 21.43.229.451.058 1.13-.009 1.922-.092 1.105-1.473 4.802-1.245 7.275.582 6.312 2.357 7.993.038 10.704-12.515 14.626-31.622.836-57.086 8.73-9.015 2.794-16.034 3.055-27.574 6.43-6.766 1.979-12.997 5.903-18.39 10.443-2.937 2.474-6.991 7.418-7.31 8.905-1.048 4.873-.403 3.697-2.273 8.127-2.255 5.341-11.795 6.482-7.418-.614 2.36-3.826 4.207-6.253 5.678-9.698 2.08-4.871 3.18-10.117 4.353-15.283z"/>
    <path id="eye-plumage" fill="#191716" stroke-width="0.5" stroke="#000" d="M106.906 36.15c1.687-1.536 5.013-3.16 7.203-3.8 1.55-.453 3.955-2.288 5.569-2.298 2.583-.016 5.145 1.24 7.248 2.74 2.59 1.846 4.319 4.701 6.098 7.336 1.911 2.83 2.673 5.577 4.591 8.401.54.796 2.772.572 4.18.153 3.33-.99 5.302-1.329 8.272-1.38 2.971-.052 4.892-.214 7.847.608 3.154.876 3.53 1.746 5.633 2.259 1.688.412 2.834-1.984 3.11-4.185.313-2.507.466-5.221.33-7.8-.098-1.89-.141-3.793.684-5.457.647-1.305 1.135-1.549 1.371-1.112.81 1.495 1.464 11.103 1.548 17.175.024 1.81.036 3.706-.62 5.392-.381.983-.8 2.532-1.855 2.563-10.922.33-37.721.665-38.543.4-3.45-1.109-6.592-.914-9.907-.868-4.483.061-9.416 3.674-13.36 1.543-2.122-1.146-3.294-3.69-3.244-6.466.114-6.33-.834-10.94 3.845-15.203z"/>
    <ellipse id="eye"      fill="#212324" stroke-width="0.5" stroke="#000" cx="106.281" cy="42.25" rx="10.198" ry="8.917"/>
    <path id="lower-beak"  fill="#3f3e3e" stroke-width="0.5" stroke="#000" d="M129.89 57.055c2.005 1.63 4.538 2.286 6.934 2.622 2.5.35 5.067.226 7.803.19 3.326-.043 6.746-.216 9.404-.367 2.572-.146 4.884-.357 7.688-.625 3.486-.334 6.015-.626 5.442-.688-2.283-.244-8.099-2.75-8.099-2.75L142.188 56s-14.756-.944-12.297 1.055z"/>
    <path id="upper-beak"  fill="#4b5570" stroke-width="0.5" stroke="#000" d="M129.473 57.017c-.209-.992 3.557-3.641 5.792-4.758 3.819-1.908 8.211-2.472 12.443-3.033 2.613-.347 5.314-.679 7.906-.196 2.32.432 4.65 1.298 6.541 2.711 2.363 1.767 6.109 6.313 5.564 6.884-.668.11-4.58-1.402-6.938-1.781-3.438-.554-6.943-.6-10.424-.709-2.887-.09-5.782-.139-8.664.042-2.442.153-4.782.463-7.288.881-1.622.27-4.681 1.155-4.932-.04z"/>
    <path id="lower-wing"  fill="#433d3d" stroke-width="0.5" stroke="#000" d="M100.36 178.321c6.903 25.34 46.308 55.743 59.824 56.366s34.603 13.01 47.014 21.05l48.548.009-.012-54.011c-5.362-13.121-156.207-29.267-155.373-23.414z"/>
    <path id="base-wing"   fill="#3c3431" stroke-width="0.5" stroke="#000" d="M118.594 185.188c9.626 17.008 15.796 23.606 28.76 34.024 8.3 6.67 25.893 9.151 31.021 11.663 10.986 5.381 26.856 18.88 38.885 24.869-9.698-.1-18.529-.074-26.358-.001-10.181-6.792-27.829-16.417-35.902-18.868-1.755-.533-13.705-5.486-22.375-7.375-29.03-6.326-70.645-71.156-73.155-83.2-3.442-16.514 50.815 24.208 59.124 38.887z"/>
    <path id="upper-wing"  fill="#3c668a" stroke-width="0.5" stroke="#000" d="M170.2 80.91c-.88 3.258-6.311 11.786-11.455 15.743-27.711 21.318-84.796 6.506-97.803 37.896-1.375 3.809-2.577 8.228-1.317 12.076 3.148 9.614 33.404 35.02 63.279 39.288 18.55 2.65 42.219-2.32 50.607-1.69 10.667.801 8.063 8.013 27.775 16.077 17.343 7.566 35.477 6.652 54.42 6.968l.01-26.492c-22.98-33.74-46.82-61.894-80.018-92.961-3.536-3.309-5.403-7.258-5.499-6.905z"/>
  </g>
</svg>
